<svg width="29" height="28" viewBox="0 0 29 28" fill="none" xmlns="http://www.w3.org/2000/svg">
<path fill-rule="evenodd" clip-rule="evenodd" d="M21.7119 14.1632L22.8666 16.1421C23.2856 16.8684 23.3674 17.7316 23.0812 18.521C22.7951 19.3 22.1922 19.9105 21.4053 20.1842C20.3017 20.5631 19.1674 20.8579 18.0228 21.0474L18.0227 21.0474C17.9103 21.0684 17.798 21.0895 17.6856 21.1C17.5017 21.1316 17.3178 21.1526 17.1339 21.1737L17.1338 21.1737C16.909 21.2052 16.674 21.2263 16.439 21.2473L16.4389 21.2474C15.8053 21.3105 15.1615 21.3421 14.5177 21.3421C13.8637 21.3421 13.2097 21.3105 12.5659 21.2474C12.2899 21.2263 12.0243 21.1947 11.7586 21.1526C11.6053 21.1316 11.452 21.1105 11.3089 21.0895C11.2527 21.0789 11.1965 21.071 11.1403 21.0631C11.0841 21.0553 11.0279 21.0474 10.9717 21.0368C9.83738 20.8368 8.72351 20.5631 7.61985 20.1842C6.80233 19.9105 6.17897 19.3 5.90305 18.5316C5.62714 17.7737 5.72933 16.9 6.16875 16.1316L7.3235 14.1526C7.56876 13.721 7.79357 12.8895 7.79357 12.3842V10.4263C7.79357 6.60526 10.8082 3.51053 14.5177 3.5C18.217 3.5 21.2316 6.60526 21.2316 10.4263V12.3947C21.2316 12.9 21.4564 13.7316 21.7119 14.1632ZM14.487 12.6684C14.9162 12.6684 15.2637 12.3105 15.2637 11.8684V8.60526C15.2637 8.16316 14.9162 7.80526 14.487 7.80526C14.0578 7.80526 13.7104 8.16316 13.7104 8.60526V11.8684C13.7104 12.3105 14.0578 12.6684 14.487 12.6684ZM14.499 24.4998C15.8274 24.4998 16.9617 23.6261 17.3909 22.4051C17.2172 22.4261 17.0537 22.4472 16.8902 22.4682C16.7522 22.4895 16.6095 22.5013 16.4653 22.5131C16.396 22.5188 16.3263 22.5245 16.2566 22.5314C15.6844 22.584 15.1019 22.6156 14.5194 22.6156C13.9267 22.6156 13.334 22.584 12.7515 22.5314C12.5062 22.5103 12.261 22.4787 12.0259 22.4472C11.9587 22.4373 11.8937 22.4297 11.8299 22.4223C11.758 22.4139 11.6876 22.4057 11.6172 22.3945C11.7603 22.8261 12.0055 23.2472 12.3325 23.563C12.8946 24.163 13.6916 24.4998 14.499 24.4998Z" fill="#554AF0"/>
</svg>
