<svg width="25" height="24" viewBox="0 0 25 24" fill="none" xmlns="http://www.w3.org/2000/svg">
<path d="M8.3 20.339H7.7C2.9 20.339 0.5 19.1426 0.5 13.1605V7.17846C0.5 2.39282 2.9 0 7.7 0H17.3C22.1 0 24.5 2.39282 24.5 7.17846V13.1605C24.5 17.9462 22.1 20.339 17.3 20.339H16.7C16.328 20.339 15.968 20.5184 15.74 20.8175L13.94 23.2104C13.148 24.2632 11.852 24.2632 11.06 23.2104L9.26 20.8175C9.068 20.5543 8.624 20.339 8.3 20.339Z" fill="#554AF0"/>
<path d="M16.8341 9.42819H16.8431" stroke="white" stroke-width="2" stroke-linecap="round" stroke-linejoin="round"/>
<path d="M12.9612 9.42857H12.9689" stroke="white" stroke-width="2" stroke-linecap="round" stroke-linejoin="round"/>
<path d="M8.66311 9.42857H8.67083" stroke="white" stroke-width="2" stroke-linecap="round" stroke-linejoin="round"/>
</svg>
