<svg width="32" height="31" viewBox="0 0 32 31" fill="none" xmlns="http://www.w3.org/2000/svg">
<path d="M29.6034 5.99966H2.39656C1.07294 5.99966 0 7.0726 0 8.39623V24.5687C0 25.8922 1.07294 26.9652 2.39656 26.9652H29.6034C30.927 26.9652 32 25.8923 32 24.5687V8.39623C32 7.0726 30.9271 5.99966 29.6034 5.99966Z" fill="#41479B"/>
<path d="M31.9668 8.00004C31.7779 6.8651 30.792 5.9996 29.6034 5.9996H28.9799L18.7586 12.6963V5.99967H13.2414V12.6964L3.02012 5.99967H2.39656C1.208 5.99967 0.222062 6.8651 0.0331875 8.0001L8.76931 13.7239H0V19.2411H8.76931L0.0331875 24.9647C0.222062 26.0997 1.208 26.9652 2.39656 26.9652H3.02012L13.2414 20.2685V26.9652H18.7586V20.2685L28.9799 26.9652H29.6034C30.792 26.9652 31.7779 26.0997 31.9668 24.9647L23.2307 19.241H32V13.7237H23.2307L31.9668 8.00004Z" fill="#F5F5F5"/>
<path d="M17.6552 5.99966H14.3448V14.8272H0V18.1376H14.3448V26.9652H17.6552V18.1376H32V14.8272H17.6552V5.99966Z" fill="#FF4B55"/>
<path d="M1.54955 26.8107L13.211 19.241H11.1842L0.576489 26.1268C0.838315 26.4328 1.17295 26.668 1.54955 26.8107ZM21.6492 19.241H19.6225L30.9172 26.5726C31.234 26.3645 31.4971 26.0845 31.6852 25.7554L21.6492 19.241ZM0.253052 7.32461L10.1112 13.7238H12.1379L0.967177 6.47254C0.665885 6.69692 0.421316 6.98873 0.253052 7.32461ZM20.7854 13.7238L31.4126 6.82536C31.1478 6.52012 30.8103 6.28666 30.4314 6.14661L18.7586 13.7238H20.7854Z" fill="#FF4B55"/>
</svg>
