<svg width="16" height="16" viewBox="0 0 16 16" fill="none" xmlns="http://www.w3.org/2000/svg">
<rect width="16" height="16" fill="#F5F5F5"/>
<g id="Section 53">
<path d="M-901 -113C-901 -114.105 -900.105 -115 -899 -115H760C761.105 -115 762 -114.105 762 -113V2069C762 2070.1 761.105 2071 760 2071H-899C-900.105 2071 -901 2070.1 -901 2069V-113Z" fill="#DFDFDF"/>
<g id="home1" clip-path="url(#clip0_0_1)">
<rect width="1440" height="1918" transform="translate(-765 -36)" fill="white"/>
<g id="Frame 1000005491">
<g id="Group 1000005488">
<g id="Group 1000005484">
<g id="Group 2">
<rect id="Rectangle 1" x="-303.5" y="-11.5" width="343" height="39" rx="19.5" stroke="#726BCF" stroke-opacity="0.2"/>
<path id="Vector" d="M15.7567 14.5735L11.8125 10.6129C12.8266 9.44901 13.3823 7.98455 13.3823 6.45999C13.3823 2.89801 10.3806 0 6.69113 0C3.0017 0 0 2.89801 0 6.45999C0 10.022 3.0017 12.92 6.69113 12.92C8.07619 12.92 9.39609 12.5167 10.5246 11.751L14.4988 15.7416C14.6649 15.9082 14.8883 16 15.1278 16C15.3544 16 15.5694 15.9166 15.7326 15.7649C16.0794 15.4428 16.0904 14.9085 15.7567 14.5735ZM6.69113 1.68522C9.4182 1.68522 11.6367 3.82713 11.6367 6.45999C11.6367 9.09286 9.4182 11.2348 6.69113 11.2348C3.96406 11.2348 1.74551 9.09286 1.74551 6.45999C1.74551 3.82713 3.96406 1.68522 6.69113 1.68522Z" fill="#554AF0"/>
</g>
</g>
</g>
</g>
<g id="Frame 1000005492">
<g id="Group 1000005488_2">
<g id="Group 1000005484_2">
<g id="Group 2_2">
<rect id="Rectangle 1_2" x="-303.5" y="-11.5" width="343" height="39" rx="19.5" stroke="#726BCF" stroke-opacity="0.2"/>
<path id="Vector_2" d="M15.7567 14.5735L11.8125 10.6129C12.8266 9.44901 13.3823 7.98455 13.3823 6.45999C13.3823 2.89801 10.3806 0 6.69113 0C3.0017 0 0 2.89801 0 6.45999C0 10.022 3.0017 12.92 6.69113 12.92C8.07619 12.92 9.39609 12.5167 10.5246 11.751L14.4988 15.7416C14.6649 15.9082 14.8883 16 15.1278 16C15.3544 16 15.5694 15.9166 15.7326 15.7649C16.0794 15.4428 16.0904 14.9085 15.7567 14.5735ZM6.69113 1.68522C9.4182 1.68522 11.6367 3.82713 11.6367 6.45999C11.6367 9.09286 9.4182 11.2348 6.69113 11.2348C3.96406 11.2348 1.74551 9.09286 1.74551 6.45999C1.74551 3.82713 3.96406 1.68522 6.69113 1.68522Z" fill="#554AF0"/>
</g>
</g>
</g>
</g>
</g>
<path d="M-899 -114H760V-116H-899V-114ZM761 -113V2069H763V-113H761ZM760 2070H-899V2072H760V2070ZM-900 2069V-113H-902V2069H-900ZM-899 2070C-899.552 2070 -900 2069.55 -900 2069H-902C-902 2070.66 -900.657 2072 -899 2072V2070ZM761 2069C761 2069.55 760.552 2070 760 2070V2072C761.657 2072 763 2070.66 763 2069H761ZM760 -114C760.552 -114 761 -113.552 761 -113H763C763 -114.657 761.657 -116 760 -116V-114ZM-899 -116C-900.657 -116 -902 -114.657 -902 -113H-900C-900 -113.552 -899.552 -114 -899 -114V-116Z" fill="black" fill-opacity="0.1"/>
</g>
<defs>
<clipPath id="clip0_0_1">
<rect width="1440" height="1918" fill="white" transform="translate(-765 -36)"/>
</clipPath>
</defs>
</svg>
